Coordinates
version=1
nRows=13
nColumns=40
inDegrees=yes

Units are S.I. units (second, meters, Newtons, ...)
If the header above contains a line with 'inDegrees', this indicates whether rotational values are in degrees (yes) or radians (no).

endheader
time	pelvis_tilt	pelvis_list	pelvis_rotation	pelvis_tx	pelvis_ty	pelvis_tz	hip_flexion_r	hip_adduction_r	hip_rotation_r	knee_angle_r	knee_angle_r_beta	ankle_angle_r	subtalar_angle_r	mtp_angle_r	hip_flexion_l	hip_adduction_l	hip_rotation_l	knee_angle_l	knee_angle_l_beta	ankle_angle_l	subtalar_angle_l	mtp_angle_l	lumbar_extension	lumbar_bending	lumbar_rotation	arm_flex_r	arm_add_r	arm_rot_r	elbow_flex_r	pro_sup_r	wrist_flex_r	wrist_dev_r	arm_flex_l	arm_add_l	arm_rot_l	elbow_flex_l	pro_sup_l	wrist_flex_l	wrist_dev_l
      3.87500000	     -7.73967866	    -10.84168557	      3.45520919	     -0.32677598	      0.76607687	     -0.97981269	     61.49506118	     -0.08025194	     -6.87690894	     14.34605735	      0.25038594	    -18.79416960	      0.00000000	      0.00000000	     60.00028591	     -8.64376644	      1.74158695	     86.12251543	      1.50312145	     22.58619460	      0.00000000	      0.00000000	    -13.89938593	      4.56070643	      7.73426671	     89.94928784	    -11.26297693	     11.26347518	     39.22838527	     70.80795653	      0.00000000	      0.00000000	     89.96027728	    -23.42454899	     13.93775741	     49.78640241	     79.15368103	      0.00000000	      0.00000000
      3.88000000	     -7.75477605	    -10.86710755	      3.55226973	     -0.32667408	      0.76738624	     -0.97996239	     61.42158484	     -0.10900415	     -6.84078659	     14.36236970	      0.25067064	    -18.79520757	      0.00000000	      0.00000000	     59.87542716	     -8.60357138	      1.74777227	     85.84410498	      1.49826228	     22.48978543	      0.00000000	      0.00000000	    -13.82650158	      4.62861901	      7.65961920	     89.94924336	    -11.31370108	     11.30672244	     39.20871459	     70.82727035	      0.00000000	      0.00000000	     89.96020916	    -23.42967136	     14.00982333	     49.77237737	     79.16707687	      0.00000000	      0.00000000
      3.88500000	     -7.75853332	    -10.80586412	      3.53007417	     -0.32648457	      0.76877441	     -0.98004459	     61.29998986	     -0.08511682	     -6.73161027	     14.28740309	      0.24936223	    -18.89217809	      0.00000000	      0.00000000	     59.68108425	     -8.56175260	      1.69219772	     85.47573215	      1.49183296	     22.77294596	      0.00000000	      0.00000000	    -13.75560274	      4.58062398	      7.68974149	     89.94928315	    -11.30845764	     11.40872986	     39.11291459	     70.88578978	      0.00000000	      0.00000000	     89.96033504	    -23.50697067	     14.23017002	     49.72667244	     79.21808994	      0.00000000	      0.00000000
      3.89000000	     -7.80287073	    -10.84987055	      3.57132003	     -0.32635828	      0.76997100	     -0.97998701	     61.27905106	     -0.05040207	     -6.74451012	     14.28568243	      0.24933219	    -18.88697876	      0.00000000	      0.00000000	     59.61739990	     -8.61107444	      1.69356044	     85.26669938	      1.48818465	     22.70629068	      0.00000000	      0.00000000	    -13.64279014	      4.64214404	      7.67564230	     89.94914754	    -11.35888571	     11.42505030	     39.11511690	     70.89989287	      0.00000000	      0.00000000	     89.96023462	    -23.53101151	     14.17269674	     49.77941879	     79.21332689	      0.00000000	      0.00000000
      3.89500000	     -7.84011580	    -10.90754608	      3.60221404	     -0.32626663	      0.77135406	     -0.98005179	     61.23503953	     -0.00272648	     -6.74820029	     14.29529879	      0.24950003	    -18.86152044	      0.00000000	      0.00000000	     59.50519632	     -8.63520688	      1.72817627	     84.95645296	      1.48276982	     22.58641187	      0.00000000	      0.00000000	    -13.54478255	      4.72451502	      7.69016446	     89.94894651	    -11.39955119	     11.42460241	     39.06808340	     70.91076089	      0.00000000	      0.00000000	     89.96018749	    -23.52792135	     14.15952962	     49.80270802	     79.21338879	      0.00000000	      0.00000000
      3.90000000	     -7.87242124	    -10.89941628	      3.60821278	     -0.32608057	      0.77255651	     -0.98008567	     61.18540551	      0.01216606	     -6.73854376	     14.30540494	      0.24967642	    -18.81514853	      0.00000000	      0.00000000	     59.39296003	     -8.63943678	      1.70709667	     84.70758944	      1.47842634	     22.47618736	      0.00000000	      0.00000000	    -13.44894062	      4.72500355	      7.67833977	     89.94897314	    -11.42014764	     11.46848877	     39.06744882	     70.92636002	      0.00000000	      0.00000000	     89.96002473	    -23.54624034	     14.14001808	     49.80243877	     79.21296544	      0.00000000	      0.00000000
      3.90500000	     -7.86003870	    -10.94252039	      3.66152020	     -0.32592439	      0.77397145	     -0.98020742	     61.10698942	      0.02039362	     -6.73925960	     14.38048487	      0.25098681	    -18.80819964	      0.00000000	      0.00000000	     59.21401575	     -8.64848196	      1.72747170	     84.41989806	      1.47340518	     22.34034111	      0.00000000	      0.00000000	    -13.38888349	      4.80665440	      7.68593203	     89.94896155	    -11.44618034	     11.49560827	     38.99380090	     70.94766239	      0.00000000	      0.00000000	     89.96003764	    -23.53741803	     14.17937904	     49.78982171	     79.21922057	      0.00000000	      0.00000000
      3.91000000	     -7.90962715	    -10.94009515	      3.69793784	     -0.32588914	      0.77527457	     -0.98018715	     61.09600341	      0.02387125	     -6.73530275	     14.41889577	      0.25165721	    -18.74908861	      0.00000000	      0.00000000	     59.11812110	     -8.66041943	      1.68590571	     84.13506800	      1.46843395	     22.21334795	      0.00000000	      0.00000000	    -13.28383883	      4.82386987	      7.65737967	     89.94888412	    -11.47753195	     11.53071957	     39.02981283	     70.96910249	      0.00000000	      0.00000000	     89.95998619	    -23.55425833	     14.17143847	     49.77955624	     79.21977657	      0.00000000	      0.00000000
      3.91500000	     -7.92141420	    -10.95502277	      3.74390140	     -0.32566358	      0.77654804	     -0.98036191	     61.03500904	      0.02286318	     -6.75599452	     14.44565745	      0.25212429	    -18.75389115	      0.00000000	      0.00000000	     58.97608873	     -8.65134956	      1.67550848	     83.88272569	      1.46402975	     22.10373223	      0.00000000	      0.00000000	    -13.19836894	      4.86618589	      7.63931181	     89.94878042	    -11.50644751	     11.54727013	     38.97573892	     70.98025189	      0.00000000	      0.00000000	     89.95978945	    -23.56488469	     14.16028125	     49.78060243	     79.22113951	      0.00000000	      0.00000000
      3.92000000	     -7.95432599	    -10.94857281	      3.71729330	     -0.32548989	      0.77794551	     -0.98024659	     61.00246567	      0.07492238	     -6.76575141	     14.47551355	      0.25264537	    -18.72277354	      0.00000000	      0.00000000	     58.82939366	     -8.68751748	      1.64641411	     83.57131696	      1.45859464	     21.99384955	      0.00000000	      0.00000000	    -13.10650531	      4.86020937	      7.58136018	     89.94849101	    -11.40514790	     11.60228732	     38.94246661	     70.99753537	      0.00000000	      0.00000000	     89.96006859	    -23.50568907	     13.99187271	     49.73617803	     79.21171212	      0.00000000	      0.00000000
      3.92500000	     -7.98175034	    -10.96417691	      3.77936498	     -0.32541524	      0.77925114	     -0.98042831	     60.95985273	      0.04817874	     -6.71582776	     14.50844903	      0.25322020	    -18.70245220	      0.00000000	      0.00000000	     58.70001948	     -8.66750811	      1.62720064	     83.27852459	      1.45348445	     21.88801115	      0.00000000	      0.00000000	    -13.01677479	      4.89811546	      7.61920765	     89.94861363	    -11.50973082	     11.60693268	     38.86772358	     71.00878383	      0.00000000	      0.00000000	     89.95974242	    -23.54841504	     14.02744368	     49.76952672	     79.22033127	      0.00000000	      0.00000000
      3.93000000	     -7.97215703	    -10.93135272	      3.78193017	     -0.32525945	      0.78068109	     -0.98046000	     60.88084971	      0.05828510	     -6.69997147	     14.53425318	      0.25367057	    -18.65741417	      0.00000000	      0.00000000	     58.48412869	     -8.63977034	      1.61317330	     82.94788911	      1.44771377	     21.76176071	      0.00000000	      0.00000000	    -12.96409587	      4.88499339	      7.62146636	     89.94844554	    -11.52729285	     11.69093692	     38.83723401	     71.04102734	      0.00000000	      0.00000000	     89.95974459	    -23.58446799	     14.07593437	     49.73725977	     79.22916034	      0.00000000	      0.00000000
      3.93500000	     -7.99180010	    -10.90210450	      3.76666274	     -0.32509414	      0.78206752	     -0.98045328	     60.82923162	      0.07612625	     -6.65383627	     14.58408640	      0.25454033	    -18.68000055	      0.00000000	      0.00000000	     58.31795942	     -8.65369208	      1.54525419	     82.63983217	      1.44233716	     21.65899690	      0.00000000	      0.00000000	    -12.88264037	      4.85493535	      7.63683887	     89.94839387	    -11.54100795	     11.72412147	     38.78019843	     71.06311932	      0.00000000	      0.00000000	     89.95960770	    -23.60732940	     14.07124957	     49.76540211	     79.23651688	      0.00000000	      0.00000000
